# xmcd CD database file
#
# Track frame offsets:
#	150
#	21213
#	56878
#	86113
#	106868
#	136471
#	155471
#	189294
#	212915
#	236522
#
# Disc length: 3513 seconds
#
# Revision: 1
# Processed by: cddbd v1.5.2PL0 Copyright (c) Steve Scherf et al.
# Submitted via: CDex 1.51
#
DISCID=860db70a
DTITLE=Mathieu Loigerot - Gaël Le Billan -Antoine Banville - Round B Flat
DYEAR=2015
DGENRE=Jazz
TTITLE0=Aircraft (dans un avion sans elles)
TTITLE1='Round B flat
TTITLE2=Edinburgh
TTITLE3=Kantun Nepala
TTITLE4=Lovely days
TTITLE5=Luca's dream
TTITLE6=Orcin dance
TTITLE7=Poisson d'Afrique
TTITLE8=Thinking a boat
TTITLE9=Vertige
EXTD=YEAR: 2015
EXTT0=
EXTT1=
EXTT2=
EXTT3=
EXTT4=
EXTT5=
EXTT6=
EXTT7=
EXTT8=
EXTT9=
PLAYORDER=
